<mxfile host="app.diagrams.net" modified="2020-09-04T04:51:04.199Z" agent="5.0 (Windows NT 10.0; WOW64) AppleWebKit/537.36 (KHTML, like Gecko) Chrome/84.0.4147.135 Safari/537.36" etag="6TFMQ0lI6KF8-UfvkQO-" version="13.1.1" type="github">
  <diagram id="C5RBs43oDa-KdzZeNtuy" name="Page-1">
    <mxGraphModel dx="2249" dy="762" grid="1" gridSize="10" guides="1" tooltips="1" connect="1" arrows="1" fold="1" page="1" pageScale="1" pageWidth="827" pageHeight="1169" math="0" shadow="0">
      <root>
        <mxCell id="WIyWlLk6GJQsqaUBKTNV-0" />
        <mxCell id="WIyWlLk6GJQsqaUBKTNV-1" parent="WIyWlLk6GJQsqaUBKTNV-0" />
        <mxCell id="lUR4yZglo8CspkgjD0Uk-5" value="" style="edgeStyle=orthogonalEdgeStyle;shape=flexArrow;rounded=0;orthogonalLoop=1;jettySize=auto;html=1;" edge="1" parent="WIyWlLk6GJQsqaUBKTNV-1" source="lUR4yZglo8CspkgjD0Uk-0" target="lUR4yZglo8CspkgjD0Uk-4">
          <mxGeometry relative="1" as="geometry" />
        </mxCell>
        <mxCell id="lUR4yZglo8CspkgjD0Uk-1" value="" style="shape=cylinder;whiteSpace=wrap;html=1;boundedLbl=1;backgroundOutline=1;direction=south;" vertex="1" parent="WIyWlLk6GJQsqaUBKTNV-1">
          <mxGeometry x="80" y="220" width="80" height="60" as="geometry" />
        </mxCell>
        <mxCell id="lUR4yZglo8CspkgjD0Uk-10" style="edgeStyle=orthogonalEdgeStyle;shape=flexArrow;rounded=0;orthogonalLoop=1;jettySize=auto;html=1;entryX=0;entryY=0.5;entryDx=0;entryDy=0;" edge="1" parent="WIyWlLk6GJQsqaUBKTNV-1" source="lUR4yZglo8CspkgjD0Uk-4" target="lUR4yZglo8CspkgjD0Uk-9">
          <mxGeometry relative="1" as="geometry" />
        </mxCell>
        <mxCell id="lUR4yZglo8CspkgjD0Uk-4" value="" style="shape=cylinder;whiteSpace=wrap;html=1;boundedLbl=1;backgroundOutline=1;direction=south;" vertex="1" parent="WIyWlLk6GJQsqaUBKTNV-1">
          <mxGeometry x="414" y="220" width="80" height="60" as="geometry" />
        </mxCell>
        <mxCell id="lUR4yZglo8CspkgjD0Uk-3" value="" style="edgeStyle=orthogonalEdgeStyle;shape=flexArrow;rounded=0;orthogonalLoop=1;jettySize=auto;html=1;" edge="1" parent="WIyWlLk6GJQsqaUBKTNV-1" source="lUR4yZglo8CspkgjD0Uk-2" target="lUR4yZglo8CspkgjD0Uk-1">
          <mxGeometry relative="1" as="geometry" />
        </mxCell>
        <mxCell id="lUR4yZglo8CspkgjD0Uk-2" value="用户单短信任务" style="shape=parallelogram;perimeter=parallelogramPerimeter;whiteSpace=wrap;html=1;" vertex="1" parent="WIyWlLk6GJQsqaUBKTNV-1">
          <mxGeometry x="-180" y="220" width="180" height="60" as="geometry" />
        </mxCell>
        <mxCell id="lUR4yZglo8CspkgjD0Uk-0" value="流式处理" style="shape=process;whiteSpace=wrap;html=1;backgroundOutline=1;" vertex="1" parent="WIyWlLk6GJQsqaUBKTNV-1">
          <mxGeometry x="220" y="220" width="120" height="60" as="geometry" />
        </mxCell>
        <mxCell id="lUR4yZglo8CspkgjD0Uk-6" value="" style="edgeStyle=orthogonalEdgeStyle;shape=flexArrow;rounded=0;orthogonalLoop=1;jettySize=auto;html=1;" edge="1" parent="WIyWlLk6GJQsqaUBKTNV-1" source="lUR4yZglo8CspkgjD0Uk-1" target="lUR4yZglo8CspkgjD0Uk-0">
          <mxGeometry relative="1" as="geometry">
            <mxPoint x="160" y="250" as="sourcePoint" />
            <mxPoint x="334" y="250" as="targetPoint" />
          </mxGeometry>
        </mxCell>
        <mxCell id="lUR4yZglo8CspkgjD0Uk-7" value="用户短信任务批量提交" style="shape=parallelogram;perimeter=parallelogramPerimeter;whiteSpace=wrap;html=1;" vertex="1" parent="WIyWlLk6GJQsqaUBKTNV-1">
          <mxGeometry x="-180" y="270" width="190" height="60" as="geometry" />
        </mxCell>
        <mxCell id="lUR4yZglo8CspkgjD0Uk-9" value="短信发送" style="shape=process;whiteSpace=wrap;html=1;backgroundOutline=1;" vertex="1" parent="WIyWlLk6GJQsqaUBKTNV-1">
          <mxGeometry x="540" y="220" width="120" height="60" as="geometry" />
        </mxCell>
        <mxCell id="lUR4yZglo8CspkgjD0Uk-11" value="" style="whiteSpace=wrap;html=1;aspect=fixed;" vertex="1" parent="WIyWlLk6GJQsqaUBKTNV-1">
          <mxGeometry x="445" y="350" width="310" height="310" as="geometry" />
        </mxCell>
        <mxCell id="lUR4yZglo8CspkgjD0Uk-12" value="" style="endArrow=none;dashed=1;html=1;entryX=0.5;entryY=1;entryDx=0;entryDy=0;" edge="1" parent="WIyWlLk6GJQsqaUBKTNV-1" source="lUR4yZglo8CspkgjD0Uk-11" target="lUR4yZglo8CspkgjD0Uk-9">
          <mxGeometry width="50" height="50" relative="1" as="geometry">
            <mxPoint x="390" y="410" as="sourcePoint" />
            <mxPoint x="440" y="360" as="targetPoint" />
          </mxGeometry>
        </mxCell>
        <mxCell id="lUR4yZglo8CspkgjD0Uk-14" value="mysql" style="shape=cylinder;whiteSpace=wrap;html=1;boundedLbl=1;backgroundOutline=1;fillColor=#6666FF;" vertex="1" parent="WIyWlLk6GJQsqaUBKTNV-1">
          <mxGeometry x="80" y="330" width="60" height="80" as="geometry" />
        </mxCell>
        <mxCell id="lUR4yZglo8CspkgjD0Uk-17" value="渠道调用" style="shape=process;whiteSpace=wrap;html=1;backgroundOutline=1;" vertex="1" parent="WIyWlLk6GJQsqaUBKTNV-1">
          <mxGeometry x="540" y="466" width="120" height="60" as="geometry" />
        </mxCell>
        <mxCell id="lUR4yZglo8CspkgjD0Uk-18" value="记录保存" style="shape=process;whiteSpace=wrap;html=1;backgroundOutline=1;" vertex="1" parent="WIyWlLk6GJQsqaUBKTNV-1">
          <mxGeometry x="540" y="557.5" width="120" height="60" as="geometry" />
        </mxCell>
        <mxCell id="lUR4yZglo8CspkgjD0Uk-19" value="渠道筛选" style="shape=process;whiteSpace=wrap;html=1;backgroundOutline=1;" vertex="1" parent="WIyWlLk6GJQsqaUBKTNV-1">
          <mxGeometry x="540" y="370" width="120" height="60" as="geometry" />
        </mxCell>
        <mxCell id="lUR4yZglo8CspkgjD0Uk-20" value="" style="endArrow=none;dashed=1;html=1;" edge="1" parent="WIyWlLk6GJQsqaUBKTNV-1" target="lUR4yZglo8CspkgjD0Uk-18">
          <mxGeometry width="50" height="50" relative="1" as="geometry">
            <mxPoint x="332" y="590" as="sourcePoint" />
            <mxPoint x="440" y="460" as="targetPoint" />
          </mxGeometry>
        </mxCell>
        <mxCell id="lUR4yZglo8CspkgjD0Uk-22" value="" style="endArrow=none;dashed=1;html=1;exitX=1;exitY=0.25;exitDx=0;exitDy=0;" edge="1" parent="WIyWlLk6GJQsqaUBKTNV-1" source="lUR4yZglo8CspkgjD0Uk-23" target="lUR4yZglo8CspkgjD0Uk-19">
          <mxGeometry width="50" height="50" relative="1" as="geometry">
            <mxPoint x="390" y="510" as="sourcePoint" />
            <mxPoint x="440" y="460" as="targetPoint" />
          </mxGeometry>
        </mxCell>
        <mxCell id="lUR4yZglo8CspkgjD0Uk-23" value="" style="shape=document;whiteSpace=wrap;html=1;boundedLbl=1;fillColor=#6666FF;" vertex="1" parent="WIyWlLk6GJQsqaUBKTNV-1">
          <mxGeometry x="195" y="380" width="120" height="80" as="geometry" />
        </mxCell>
        <mxCell id="lUR4yZglo8CspkgjD0Uk-24" value="" style="shape=document;whiteSpace=wrap;html=1;boundedLbl=1;fillColor=#6666FF;" vertex="1" parent="WIyWlLk6GJQsqaUBKTNV-1">
          <mxGeometry x="210" y="400" width="120" height="80" as="geometry" />
        </mxCell>
        <mxCell id="lUR4yZglo8CspkgjD0Uk-21" value="mongo" style="shape=document;whiteSpace=wrap;html=1;boundedLbl=1;fillColor=#6666FF;" vertex="1" parent="WIyWlLk6GJQsqaUBKTNV-1">
          <mxGeometry x="230" y="420" width="120" height="80" as="geometry" />
        </mxCell>
        <mxCell id="lUR4yZglo8CspkgjD0Uk-28" value="" style="shape=document;whiteSpace=wrap;html=1;boundedLbl=1;fillColor=#6666FF;" vertex="1" parent="WIyWlLk6GJQsqaUBKTNV-1">
          <mxGeometry x="210" y="580" width="120" height="80" as="geometry" />
        </mxCell>
        <mxCell id="lUR4yZglo8CspkgjD0Uk-29" value="" style="shape=document;whiteSpace=wrap;html=1;boundedLbl=1;fillColor=#6666FF;" vertex="1" parent="WIyWlLk6GJQsqaUBKTNV-1">
          <mxGeometry x="225" y="600" width="120" height="80" as="geometry" />
        </mxCell>
        <mxCell id="lUR4yZglo8CspkgjD0Uk-30" value="es 10N" style="shape=document;whiteSpace=wrap;html=1;boundedLbl=1;fillColor=#6666FF;" vertex="1" parent="WIyWlLk6GJQsqaUBKTNV-1">
          <mxGeometry x="245" y="620" width="120" height="80" as="geometry" />
        </mxCell>
        <mxCell id="lUR4yZglo8CspkgjD0Uk-31" value="" style="shape=document;whiteSpace=wrap;html=1;boundedLbl=1;fillColor=#6666FF;" vertex="1" parent="WIyWlLk6GJQsqaUBKTNV-1">
          <mxGeometry x="185" width="120" height="80" as="geometry" />
        </mxCell>
        <mxCell id="lUR4yZglo8CspkgjD0Uk-32" value="" style="shape=document;whiteSpace=wrap;html=1;boundedLbl=1;fillColor=#6666FF;" vertex="1" parent="WIyWlLk6GJQsqaUBKTNV-1">
          <mxGeometry x="200" y="20" width="120" height="80" as="geometry" />
        </mxCell>
        <mxCell id="lUR4yZglo8CspkgjD0Uk-33" value="es 5N" style="shape=document;whiteSpace=wrap;html=1;boundedLbl=1;fillColor=#6666FF;" vertex="1" parent="WIyWlLk6GJQsqaUBKTNV-1">
          <mxGeometry x="220" y="40" width="120" height="80" as="geometry" />
        </mxCell>
        <mxCell id="lUR4yZglo8CspkgjD0Uk-34" value="" style="endArrow=classic;html=1;exitX=1;exitY=0.3;exitDx=0;exitDy=0;" edge="1" parent="WIyWlLk6GJQsqaUBKTNV-1" source="lUR4yZglo8CspkgjD0Uk-14">
          <mxGeometry width="50" height="50" relative="1" as="geometry">
            <mxPoint x="195" y="330" as="sourcePoint" />
            <mxPoint x="245" y="280" as="targetPoint" />
          </mxGeometry>
        </mxCell>
        <mxCell id="lUR4yZglo8CspkgjD0Uk-36" value="" style="endArrow=none;dashed=1;html=1;entryX=1;entryY=0.613;entryDx=0;entryDy=0;exitX=0.5;exitY=0;exitDx=0;exitDy=0;entryPerimeter=0;" edge="1" parent="WIyWlLk6GJQsqaUBKTNV-1" source="lUR4yZglo8CspkgjD0Uk-14" target="lUR4yZglo8CspkgjD0Uk-1">
          <mxGeometry width="50" height="50" relative="1" as="geometry">
            <mxPoint x="390" y="410" as="sourcePoint" />
            <mxPoint x="440" y="360" as="targetPoint" />
          </mxGeometry>
        </mxCell>
        <mxCell id="lUR4yZglo8CspkgjD0Uk-37" value="" style="endArrow=classic;html=1;entryX=0.5;entryY=0;entryDx=0;entryDy=0;exitX=0.508;exitY=0.888;exitDx=0;exitDy=0;exitPerimeter=0;" edge="1" parent="WIyWlLk6GJQsqaUBKTNV-1" source="lUR4yZglo8CspkgjD0Uk-33" target="lUR4yZglo8CspkgjD0Uk-0">
          <mxGeometry width="50" height="50" relative="1" as="geometry">
            <mxPoint x="280" y="123" as="sourcePoint" />
            <mxPoint x="440" y="260" as="targetPoint" />
          </mxGeometry>
        </mxCell>
        <mxCell id="lUR4yZglo8CspkgjD0Uk-38" value="" style="endArrow=classic;html=1;exitX=0.5;exitY=1;exitDx=0;exitDy=0;entryX=0.5;entryY=0;entryDx=0;entryDy=0;" edge="1" parent="WIyWlLk6GJQsqaUBKTNV-1" source="lUR4yZglo8CspkgjD0Uk-19" target="lUR4yZglo8CspkgjD0Uk-17">
          <mxGeometry width="50" height="50" relative="1" as="geometry">
            <mxPoint x="390" y="510" as="sourcePoint" />
            <mxPoint x="440" y="460" as="targetPoint" />
          </mxGeometry>
        </mxCell>
        <mxCell id="lUR4yZglo8CspkgjD0Uk-39" value="" style="endArrow=classic;html=1;exitX=0.5;exitY=1;exitDx=0;exitDy=0;entryX=0.5;entryY=0;entryDx=0;entryDy=0;" edge="1" parent="WIyWlLk6GJQsqaUBKTNV-1" source="lUR4yZglo8CspkgjD0Uk-17" target="lUR4yZglo8CspkgjD0Uk-18">
          <mxGeometry width="50" height="50" relative="1" as="geometry">
            <mxPoint x="610" y="440" as="sourcePoint" />
            <mxPoint x="610" y="470" as="targetPoint" />
          </mxGeometry>
        </mxCell>
        <mxCell id="lUR4yZglo8CspkgjD0Uk-40" value="" style="endArrow=classic;html=1;entryX=0;entryY=0.25;entryDx=0;entryDy=0;" edge="1" parent="WIyWlLk6GJQsqaUBKTNV-1" target="lUR4yZglo8CspkgjD0Uk-19">
          <mxGeometry width="50" height="50" relative="1" as="geometry">
            <mxPoint x="450" y="385" as="sourcePoint" />
            <mxPoint x="440" y="460" as="targetPoint" />
          </mxGeometry>
        </mxCell>
        <mxCell id="lUR4yZglo8CspkgjD0Uk-43" value="http" style="text;html=1;strokeColor=none;fillColor=none;align=center;verticalAlign=middle;whiteSpace=wrap;rounded=0;" vertex="1" parent="WIyWlLk6GJQsqaUBKTNV-1">
          <mxGeometry x="570" y="440" width="40" height="20" as="geometry" />
        </mxCell>
      </root>
    </mxGraphModel>
  </diagram>
</mxfile>
